<?xml version="1.0" encoding="UTF-8"?>
<svg version="1.1" xmlns="http://www.w3.org/2000/svg" width="175" height="175">
<path d="M0 0 C1.05832031 0.36222656 2.11664063 0.72445313 3.20703125 1.09765625 C23.61910156 8.82751599 41.8843057 26.1049821 50.90039062 45.98535156 C59.75065642 66.99224656 61.69093959 91.28885577 54 113 C53.63777344 114.05832031 53.27554688 115.11664063 52.90234375 116.20703125 C45.17248401 136.61910156 27.8950179 154.8843057 8.01464844 163.90039062 C-12.99224656 172.75065642 -37.28885577 174.69093959 -59 167 C-60.05832031 166.63777344 -61.11664063 166.27554688 -62.20703125 165.90234375 C-82.61910156 158.17248401 -100.8843057 140.8950179 -109.90039062 121.01464844 C-118.75065642 100.00775344 -120.69093959 75.71114423 -113 54 C-112.63777344 52.94167969 -112.27554688 51.88335937 -111.90234375 50.79296875 C-104.17248401 30.38089844 -86.8950179 12.1156943 -67.01464844 3.09960938 C-46.00775344 -5.75065642 -21.71114423 -7.69093959 0 0 Z " fill="#FEFDFC" transform="translate(117,4)"/>
<path d="M0 0 C3.10398978 -0.08710289 6.20766548 -0.14042309 9.3125 -0.1875 C10.19357422 -0.21263672 11.07464844 -0.23777344 11.98242188 -0.26367188 C12.82998047 -0.27333984 13.67753906 -0.28300781 14.55078125 -0.29296875 C15.72120972 -0.31653442 15.72120972 -0.31653442 16.9152832 -0.34057617 C19.55839736 0.0912243 20.41222973 0.8746114 22 3 C22.4765625 6.1015625 22.4765625 6.1015625 22.625 9.625 C22.45053019 13.63075761 22.45053019 13.63075761 24 17 C25.99567879 17.19313021 27.99209519 17.38320963 29.9921875 17.5234375 C32.58405938 18.13862888 33.38150522 18.88744435 35 21 C35.37231445 23.58789062 35.37231445 23.58789062 35.36328125 26.65625 C35.36263672 27.76097656 35.36199219 28.86570312 35.36132812 30.00390625 C35.34521484 31.15761719 35.32910156 32.31132813 35.3125 33.5 C35.31572266 34.65371094 35.31894531 35.80742188 35.32226562 36.99609375 C35.26705173 45.5994224 35.26705173 45.5994224 33 49 C30.32617188 49.37231445 30.32617188 49.37231445 26.96875 49.36328125 C25.76605469 49.36263672 24.56335938 49.36199219 23.32421875 49.36132812 C22.06222656 49.34521484 20.80023438 49.32910156 19.5 49.3125 C18.23800781 49.31572266 16.97601563 49.31894531 15.67578125 49.32226562 C6.26680003 49.26680003 6.26680003 49.26680003 4 47 C3.62109375 45.08984375 3.62109375 45.08984375 3.4375 42.9375 C3.44086552 39.23263383 3.44086552 39.23263383 2 38 C-1.29777168 37.7547112 -4.59458409 37.61574923 -7.8984375 37.4765625 C-11.28547089 36.95613671 -12.00209146 36.65786285 -14 34 C-14.34057617 31.82348633 -14.34057617 31.82348633 -14.29296875 29.33203125 C-14.28330078 28.43935547 -14.27363281 27.54667969 -14.26367188 26.62695312 C-14.23853516 25.69818359 -14.21339844 24.76941406 -14.1875 23.8125 C-14.17396484 22.87212891 -14.16042969 21.93175781 -14.14648438 20.96289062 C-14.11113096 18.64134962 -14.06178674 16.32096347 -14 14 C-13.01 13.67 -12.02 13.34 -11 13 C-9.07397461 14.06054688 -9.07397461 14.06054688 -6.90234375 15.71875 C-6.10481689 16.31864746 -5.30729004 16.91854492 -4.4855957 17.53662109 C-3.22428833 18.50849365 -3.22428833 18.50849365 -1.9375 19.5 C-0.22198229 20.79510328 1.4941581 22.08938217 3.2109375 23.3828125 C4.03561523 24.00833008 4.86029297 24.63384766 5.70996094 25.27832031 C9.72799974 28.29913157 13.85069092 31.16268325 18 34 C18.66 33.67 19.32 33.34 20 33 C17.8145796 30.01930289 15.62627139 27.04073706 13.4375 24.0625 C12.52387695 22.81629883 12.52387695 22.81629883 11.59179688 21.54492188 C10.98271484 20.71669922 10.37363281 19.88847656 9.74609375 19.03515625 C9.13491699 18.20000488 8.52374023 17.36485352 7.89404297 16.50439453 C6.61746151 14.81643725 5.29703634 13.16087147 3.93798828 11.53857422 C3.28942871 10.76143066 2.64086914 9.98428711 1.97265625 9.18359375 C1.378479 8.4970874 0.78430176 7.81058105 0.17211914 7.10327148 C-1 5 -1 5 -0.68579102 2.23852539 C-0.45947998 1.49981201 -0.23316895 0.76109863 0 0 Z " fill="#E33C1D" transform="translate(48,33)"/>
<path d="M0 0 C1.15371094 -0.01611328 2.30742188 -0.03222656 3.49609375 -0.04882812 C4.60082031 -0.04947266 5.70554688 -0.05011719 6.84375 -0.05078125 C8.36258789 -0.05525269 8.36258789 -0.05525269 9.91210938 -0.05981445 C12.5 0.3125 12.5 0.3125 14.32861328 1.48168945 C15.96617071 4.0410982 15.88832462 5.94259108 15.8984375 8.96875 C15.90423828 10.62583984 15.90423828 10.62583984 15.91015625 12.31640625 C15.89855469 13.47011719 15.88695312 14.62382813 15.875 15.8125 C15.88660156 16.96621094 15.89820313 18.11992188 15.91015625 19.30859375 C15.90628906 20.41332031 15.90242188 21.51804687 15.8984375 22.65625 C15.89505371 23.66880859 15.89166992 24.68136719 15.88818359 25.72460938 C15.5 28.3125 15.5 28.3125 14.10058594 30.13623047 C12.12838785 31.58559752 10.80071326 31.76743154 8.375 31.9375 C4.72420033 31.87639726 4.72420033 31.87639726 3.5 33.3125 C3.2547112 36.61027168 3.11574923 39.90708409 2.9765625 43.2109375 C2.45650173 46.59559529 2.14666129 47.30745356 -0.5 49.3125 C-2.5847168 49.65307617 -2.5847168 49.65307617 -4.94921875 49.60546875 C-5.79677734 49.59580078 -6.64433594 49.58613281 -7.51757812 49.57617188 C-8.39865234 49.55103516 -9.27972656 49.52589844 -10.1875 49.5 C-11.08017578 49.48646484 -11.97285156 49.47292969 -12.89257812 49.45898438 C-15.09566166 49.42364079 -17.29752582 49.37430493 -19.5 49.3125 C-20.10644531 47.49536133 -20.10644531 47.49536133 -20.5 45.3125 C-19.17238138 43.03179738 -17.84721999 41.07819109 -16.25 39 C-15.80414551 38.39913574 -15.35829102 37.79827148 -14.89892578 37.17919922 C-13.94381661 35.89323307 -12.98350071 34.61112097 -12.01855469 33.33251953 C-9.93844472 30.56550509 -7.9006573 27.76834672 -5.86035156 24.97192383 C-3.74846802 22.07936538 -1.62424874 19.19598594 0.5 16.3125 C-0.16 15.9825 -0.82 15.6525 -1.5 15.3125 C-2.02319824 15.69994385 -2.54639648 16.0873877 -3.08544922 16.48657227 C-8.10720437 20.20289206 -13.1372981 23.90759819 -18.17480469 27.60253906 C-20.0833423 29.00608772 -21.98457324 30.41853768 -23.8828125 31.8359375 C-24.74648438 32.46757813 -25.61015625 33.09921875 -26.5 33.75 C-27.221875 34.28496094 -27.94375 34.81992188 -28.6875 35.37109375 C-29.285625 35.68175781 -29.88375 35.99242187 -30.5 36.3125 C-31.49 35.9825 -32.48 35.6525 -33.5 35.3125 C-33.55790353 32.02090684 -33.59356261 28.72944397 -33.625 25.4375 C-33.64175781 24.50035156 -33.65851562 23.56320313 -33.67578125 22.59765625 C-33.68544922 21.25380859 -33.68544922 21.25380859 -33.6953125 19.8828125 C-33.70578613 19.05539551 -33.71625977 18.22797852 -33.72705078 17.37548828 C-33.5 15.3125 -33.5 15.3125 -31.5 13.3125 C-28.15576501 12.92527279 -24.83142298 12.80504084 -21.46875 12.65625 C-18.38393229 12.61048671 -18.38393229 12.61048671 -16.5 10.3125 C-16.16330615 8.26676522 -16.05930828 6.25649048 -15.94140625 4.1875 C-14.49555988 -1.95414831 -4.76225605 -0.01330239 0 0 Z " fill="#E33B1D" transform="translate(67.5,92.6875)"/>
<path d="M0 0 C0.84755859 0.00966797 1.69511719 0.01933594 2.56835938 0.02929688 C3.44943359 0.05443359 4.33050781 0.07957031 5.23828125 0.10546875 C6.13095703 0.11900391 7.02363281 0.13253906 7.94335938 0.14648438 C10.14644291 0.18182796 12.34830707 0.23116382 14.55078125 0.29296875 C15.15722656 2.11010742 15.15722656 2.11010742 15.55078125 4.29296875 C14.22316263 6.57367137 12.89800124 8.52727766 11.30078125 10.60546875 C10.63199951 11.50676514 10.63199951 11.50676514 9.94970703 12.42626953 C8.99459786 13.71223568 8.03428196 14.99434778 7.06933594 16.27294922 C4.98922597 19.03996366 2.95143855 21.83712203 0.91113281 24.63354492 C-1.20075073 27.52610337 -3.32497001 30.40948281 -5.44921875 33.29296875 C-4.78921875 33.62296875 -4.12921875 33.95296875 -3.44921875 34.29296875 C-1.50115566 32.88719648 0.44673718 31.48119022 2.39428711 30.07470703 C4.04389829 28.8842727 5.69445682 27.69515007 7.34594727 26.50732422 C10.95357743 23.9093756 14.55500966 21.30976531 18.08984375 18.61328125 C19.04632813 17.88882813 20.0028125 17.164375 20.98828125 16.41796875 C21.81199219 15.78117187 22.63570312 15.144375 23.484375 14.48828125 C24.16628906 14.09382813 24.84820312 13.699375 25.55078125 13.29296875 C26.54078125 13.62296875 27.53078125 13.95296875 28.55078125 14.29296875 C28.63785017 17.56363441 28.69119366 20.8340024 28.73828125 24.10546875 C28.76341797 25.03423828 28.78855469 25.96300781 28.81445312 26.91992188 C28.82412109 27.81259766 28.83378906 28.70527344 28.84375 29.625 C28.85946045 30.44718018 28.8751709 31.26936035 28.89135742 32.11645508 C28.46760197 34.82454098 27.73502012 35.67905715 25.55078125 37.29296875 C22.44921875 37.76953125 22.44921875 37.76953125 18.92578125 37.91796875 C14.92002364 37.74349894 14.92002364 37.74349894 11.55078125 39.29296875 C11.32544815 41.32096665 11.1031094 43.34971749 10.9296875 45.3828125 C10.55078125 47.29296875 10.55078125 47.29296875 8.55078125 49.29296875 C5.96875 49.55175781 5.96875 49.55175781 2.73828125 49.55859375 C1.58070312 49.56117187 0.423125 49.56375 -0.76953125 49.56640625 C-1.98382813 49.55867188 -3.198125 49.5509375 -4.44921875 49.54296875 C-5.66351563 49.55070312 -6.8778125 49.5584375 -8.12890625 49.56640625 C-9.86527344 49.56253906 -9.86527344 49.56253906 -11.63671875 49.55859375 C-13.23580078 49.55520996 -13.23580078 49.55520996 -14.8671875 49.55175781 C-17.44921875 49.29296875 -17.44921875 49.29296875 -19.44921875 47.29296875 C-19.90967364 42.81038923 -19.77321895 38.2964484 -19.76171875 33.79296875 C-19.77783203 32.53097656 -19.79394531 31.26898438 -19.81054688 29.96875 C-19.81119141 28.76605469 -19.81183594 27.56335938 -19.8125 26.32421875 C-19.81548096 25.21626953 -19.81846191 24.10832031 -19.8215332 22.96679688 C-19.69866943 22.08443359 -19.57580566 21.20207031 -19.44921875 20.29296875 C-15.99863189 17.99257751 -13.50826373 17.81914125 -9.44921875 17.29296875 C-7.16495681 15.00870681 -8.05606263 9.48699975 -7.92578125 6.39453125 C-7.1450461 1.31335331 -5.0137424 -0.10094783 0 0 Z " fill="#E33A1C" transform="translate(113.44921875,32.70703125)"/>
<path d="M0 0 C1.16208984 0.00322266 2.32417969 0.00644531 3.52148438 0.00976562 C4.67970703 -0.00634766 5.83792969 -0.02246094 7.03125 -0.0390625 C8.14048828 -0.03970703 9.24972656 -0.04035156 10.39257812 -0.04101562 C11.92096313 -0.04548706 11.92096313 -0.04548706 13.48022461 -0.05004883 C16.08398438 0.32226562 16.08398438 0.32226562 17.90454102 1.62231445 C19.7410655 4.26932749 19.68336336 7.17452908 20.08398438 10.32226562 C22.84449661 13.08277786 24.73646893 12.65202158 28.58398438 12.82226562 C34.86176215 13.1000434 34.86176215 13.1000434 37.08398438 15.32226562 C37.31103516 17.38525391 37.31103516 17.38525391 37.27929688 19.89257812 C37.27285156 20.78847656 37.26640625 21.684375 37.25976562 22.60742188 C37.24300781 23.54457031 37.22625 24.48171875 37.20898438 25.44726562 C37.19996094 26.39214844 37.1909375 27.33703125 37.18164062 28.31054688 C37.1580296 30.64803855 37.12509954 32.98502686 37.08398438 35.32226562 C35.20556641 35.89697266 35.20556641 35.89697266 33.08398438 36.32226562 C31.13867188 35.12695312 31.13867188 35.12695312 28.95898438 33.19726562 C23.96895991 28.97378106 18.77325558 25.12917842 13.45898438 21.32226562 C12.64026855 20.73429199 11.82155273 20.14631836 10.97802734 19.54052734 C9.0149032 18.1322443 7.050278 16.72611828 5.08398438 15.32226562 C4.09398438 15.81726563 4.09398438 15.81726563 3.08398438 16.32226562 C3.47142822 16.84546387 3.85887207 17.36866211 4.25805664 17.90771484 C7.97508741 22.93043072 11.67883547 27.9626596 15.37402344 33.00146484 C16.77322921 34.90050112 18.18496719 36.78832042 19.60742188 38.66992188 C20.2390625 39.52457031 20.87070313 40.37921875 21.52148438 41.25976562 C22.05644531 41.97003906 22.59140625 42.6803125 23.14257812 43.41210938 C24.3342247 45.83001467 23.83060239 46.80972801 23.08398438 49.32226562 C19.97999459 49.40936852 16.8763189 49.46268871 13.77148438 49.50976562 C12.89041016 49.53490234 12.00933594 49.56003906 11.1015625 49.5859375 C10.25400391 49.59560547 9.40644531 49.60527344 8.53320312 49.61523438 C7.75291748 49.63094482 6.97263184 49.64665527 6.16870117 49.6628418 C3.52558702 49.23104132 2.67175465 48.44765423 1.08398438 46.32226562 C0.60742188 43.22070312 0.60742188 43.22070312 0.45898438 39.69726562 C0.63345418 35.69150801 0.63345418 35.69150801 -0.91601562 32.32226562 C-2.94401352 32.09693253 -4.97276436 31.87459377 -7.00585938 31.70117188 C-8.91601562 31.32226562 -8.91601562 31.32226562 -10.91601562 29.32226562 C-11.17480469 26.6484375 -11.17480469 26.6484375 -11.18164062 23.29101562 C-11.18421875 22.08832031 -11.18679687 20.885625 -11.18945312 19.64648438 C-11.18171875 18.38449219 -11.17398438 17.1225 -11.16601562 15.82226562 C-11.17375 14.56027344 -11.18148437 13.29828125 -11.18945312 11.99804688 C-11.186875 10.79535156 -11.18429688 9.59265625 -11.18164062 8.35351562 C-11.17938477 7.24556641 -11.17712891 6.13761719 -11.17480469 4.99609375 C-10.5557018 -1.40052403 -5.07261297 0.03246 0 0 Z " fill="#E33A1C" transform="translate(104.916015625,92.677734375)"/>
<path d="M0 0 C4.23504617 1.61335092 6.60283402 4.95566805 8.625 9 C9.22229005 15.09235846 7.9859954 18.10254956 4.625 23 C1.625 25 1.625 25 -0.61328125 24.87109375 C-4.21262243 23.73579943 -7.33098942 21.97034062 -10.5625 20.0625 C-11.19091797 19.70220703 -11.81933594 19.34191406 -12.46679688 18.97070312 C-15.03516418 17.47912724 -17.26613712 16.10886288 -19.375 14 C-19.3984375 12.1328125 -19.3984375 12.1328125 -18.375 10 C-16.25984212 8.45587648 -14.26254306 7.15743281 -12 5.875 C-10.82539418 5.18511143 -9.65091101 4.49501399 -8.4765625 3.8046875 C-7.45304688 3.20914063 -6.42953125 2.61359375 -5.375 2 C-2.375 0 -2.375 0 0 0 Z " fill="#E33C1E" transform="translate(149.375,75)"/>
<path d="M0 0 C3.85538023 1.22597865 7.14143439 3.08741795 10.61328125 5.140625 C11.30615234 5.52347656 11.99902344 5.90632813 12.71289062 6.30078125 C17.55559096 9.15391898 17.55559096 9.15391898 18.64453125 12.42578125 C17.38943679 16.09228403 14.72673216 17.31263582 11.48828125 19.078125 C10.30465701 19.75906159 9.12106231 20.44004952 7.9375 21.12109375 C6.90238281 21.70503906 5.86726563 22.28898437 4.80078125 22.890625 C3.81078125 23.550625 2.82078125 24.210625 1.80078125 24.890625 C-2.17239725 24.80608929 -3.70915005 24.3939388 -6.51171875 21.515625 C-9.30929813 17.16383486 -9.91059021 12.9759696 -9.19921875 7.890625 C-4.83258839 -0.24034187 -4.83258839 -0.24034187 0 0 Z " fill="#E33C1E" transform="translate(26.19921875,75.109375)"/>
<path d="M0 0 C4.02822616 1.54931775 7.07070578 3.02792367 9 7 C8.65710406 12.06318687 6.71555786 15.64896112 4 19.8125 C3.63132812 20.39708984 3.26265625 20.98167969 2.8828125 21.58398438 C0.21552579 25.78447421 0.21552579 25.78447421 -1 27 C-2.66617115 27.04063832 -4.33388095 27.042721 -6 27 C-7.51340907 24.44462079 -9.01070003 21.88187787 -10.5 19.3125 C-10.92925781 18.59126953 -11.35851562 17.87003906 -11.80078125 17.12695312 C-15.86872117 10.05648613 -15.86872117 10.05648613 -15 6 C-9.87223 1.09517653 -7.07247564 -0.47149838 0 0 Z " fill="#E33B1C" transform="translate(91,17)"/>
<path d="M0 0 C2.296875 0.0546875 2.296875 0.0546875 5 1 C7.203125 3.6953125 7.203125 3.6953125 9.25 7.125 C9.93578125 8.24132812 10.6215625 9.35765625 11.328125 10.5078125 C13.0823426 14.17199599 13.88297749 16.94321956 14 21 C10.17168065 25.00233387 7.19838886 26.79260482 1.6875 27.3125 C-3.48835112 26.87386855 -6.39607374 24.60392626 -10 21 C-9.78437108 15.48798562 -7.98508599 11.63394108 -5 7.125 C-4.63132812 6.54492188 -4.26265625 5.96484375 -3.8828125 5.3671875 C-1.24178166 1.24178166 -1.24178166 1.24178166 0 0 Z " fill="#E33A1B" transform="translate(86,131)"/>
</svg>
