<svg width="581" height="158" viewBox="0 0 581 158" fill="none" xmlns="http://www.w3.org/2000/svg">
<path d="M489.61 1.45605H446.69C441.67 1.45605 437.6 5.52614 437.6 10.5461V62.3159C437.6 63.1559 438.28 63.8359 439.12 63.8359H489.6C490.44 63.8359 491.12 63.1559 491.12 62.3159V52.446C491.12 51.606 490.44 50.926 489.6 50.926H455.96V39.116H489.6C490.44 39.116 491.12 38.4359 491.12 37.5959V27.7261C491.12 26.8861 490.44 26.2061 489.6 26.2061H455.96V14.386H489.6C490.44 14.386 491.12 13.706 491.12 12.866V2.99609C491.12 2.15609 490.44 1.47607 489.6 1.47607L489.61 1.45605Z" fill="#007894"/>
<path d="M239.71 95.0261H196.79C191.77 95.0261 187.7 99.096 187.7 104.116V155.886C187.7 156.726 188.38 157.406 189.22 157.406H239.7C240.54 157.406 241.22 156.726 241.22 155.886V146.016C241.22 145.176 240.54 144.496 239.7 144.496H206.06V132.686H239.7C240.54 132.686 241.22 132.006 241.22 131.166V121.296C241.22 120.456 240.54 119.776 239.7 119.776H206.06V107.956H239.7C240.54 107.956 241.22 107.276 241.22 106.436V96.5659C241.22 95.7259 240.54 95.0461 239.7 95.0461L239.71 95.0261Z" fill="#007894"/>
<path d="M266.26 62.3159C266.26 63.1559 266.94 63.8359 267.78 63.8359H283.1C283.94 63.8359 284.62 63.1559 284.62 62.3159V38.8259L305.57 2.53613C305.85 2.05613 305.5 1.46606 304.95 1.46606H292.36C289.11 1.46606 286.11 3.1961 284.49 6.0061L275.43 21.696L266.37 6.0061C264.75 3.1961 261.75 1.46606 258.5 1.46606H245.91C245.36 1.46606 245.01 2.06613 245.29 2.53613L266.24 38.8259V62.3159H266.26Z" fill="#007894"/>
<path d="M429.74 1.45605H378.31C375.06 1.45605 372.06 3.18609 370.44 5.99609L366.23 13.2961C365.95 13.7761 366.3 14.366 366.85 14.366H388.4V62.3062C388.4 63.1462 389.08 63.8259 389.92 63.8259H405.24C406.08 63.8259 406.76 63.1462 406.76 62.3062V14.366H418.27C421.52 14.366 424.52 12.6359 426.14 9.82593L430.35 2.52612C430.63 2.04612 430.28 1.44604 429.73 1.44604L429.74 1.45605Z" fill="#007894"/>
<path d="M579.43 1.45605H567.66C564.41 1.45605 561.41 3.18609 559.79 5.99609L542.73 35.5461L525.76 6.01611C524.14 3.19611 521.13 1.45605 517.88 1.45605H506.3C505.46 1.45605 504.78 2.13607 504.78 2.97607V62.3159C504.78 63.1559 505.46 63.8359 506.3 63.8359H521.62C522.46 63.8359 523.14 63.1559 523.14 62.3159V31.906L540.24 61.5261C541.35 63.4461 544.12 63.4461 545.23 61.5261L562.6 31.436V62.3159C562.6 63.1559 563.28 63.8359 564.12 63.8359H579.44C580.28 63.8359 580.96 63.1559 580.96 62.3159V2.97607C580.96 2.13607 580.28 1.45605 579.44 1.45605H579.43Z" fill="#007894"/>
<path d="M391.87 142.896C391.24 141.806 389.66 141.806 389.03 142.896L382.07 154.956C381.44 156.046 382.23 157.416 383.49 157.416H397.63C398.8 157.416 399.52 156.156 398.94 155.146L391.87 142.906V142.896Z" fill="#007894"/>
<path d="M365.04 122.506L376.33 115.986L366.78 99.446C365.2 96.716 362.29 95.0361 359.13 95.0361H327.95C327.11 95.0361 326.43 95.7162 326.43 96.5562V155.896C326.43 156.736 327.11 157.416 327.95 157.416H343.27C344.11 157.416 344.79 156.736 344.79 155.896V105.366C344.79 103.416 347.37 102.726 348.34 104.416L357.65 120.536C359.14 123.126 362.45 124.006 365.04 122.516V122.506Z" fill="#007894"/>
<path d="M302.21 131.696C308.79 128.366 313.23 121.406 312.84 113.436C312.33 103.006 303.28 95.0261 292.84 95.0261H256.4C255.56 95.0261 254.88 95.7061 254.88 96.5461V155.886C254.88 156.726 255.56 157.406 256.4 157.406H271.19C272.32 157.406 273.24 156.486 273.24 155.356V134.266H279.6C282.86 134.266 285.88 136.026 287.48 138.866L295.34 152.776C296.96 155.636 299.99 157.406 303.27 157.406H314.87C315.86 157.406 316.47 156.336 315.98 155.476L302.21 131.686V131.696ZM287.92 121.236H273.24V107.976H287.92C291.58 107.976 294.55 110.946 294.55 114.606C294.55 118.266 291.58 121.236 287.92 121.236Z" fill="#007894"/>
<path d="M188.43 58.126C192.22 60.156 202.78 65.2962 214.03 65.2962C215.34 65.2962 216.65 65.2259 217.96 65.0859C233.84 63.3259 239.24 54.9259 240.76 47.3159C241.59 43.1359 241.09 37.336 238.2 33.626C235.2 29.766 228 25.5859 215.58 24.5859C207.36 23.6759 205.73 22.496 205.71 20.106C205.69 18.046 208.86 13.966 217.34 14.666C220.4 14.916 223.78 15.326 227.16 16.156C230.08 16.876 233.13 15.526 234.62 12.916L238.53 6.07593C238.94 5.36593 238.66 4.45597 237.91 4.11597C232.12 1.49597 220.78 -0.974009 211.52 0.385991C192.93 3.11599 189.07 13.8859 189.06 20.0659C189.02 32.3159 197.25 38.306 214.11 40.126C214.25 40.146 225.48 41.176 224.97 45.126C224.26 50.756 214.84 49.7061 214.13 49.7061C209.31 49.7261 204.04 48.176 200.03 46.606C196.93 45.386 193.4 46.6859 191.73 49.5759L187.89 56.2161C187.5 56.8961 187.73 57.766 188.42 58.136L188.43 58.126Z" fill="#007894"/>
<path d="M308.82 58.126C312.61 60.156 323.17 65.2962 334.42 65.2962C335.73 65.2962 337.04 65.2259 338.35 65.0859C354.23 63.3259 359.63 54.9259 361.15 47.3159C361.98 43.1359 361.48 37.336 358.59 33.626C355.59 29.766 348.39 25.5859 335.97 24.5859C327.75 23.6759 326.12 22.496 326.1 20.106C326.08 18.046 329.25 13.966 337.73 14.666C340.79 14.916 344.17 15.326 347.55 16.156C350.47 16.876 353.52 15.526 355.01 12.916L358.92 6.07593C359.33 5.36593 359.05 4.45597 358.3 4.11597C352.51 1.49597 341.17 -0.974009 331.91 0.385991C313.32 3.11599 309.46 13.8859 309.45 20.0659C309.41 32.3159 317.64 38.306 334.5 40.126C334.64 40.146 345.87 41.176 345.36 45.126C344.65 50.756 335.23 49.7061 334.52 49.7061C329.7 49.7261 324.43 48.176 320.42 46.606C317.31 45.386 313.79 46.6859 312.12 49.5759L308.28 56.2161C307.89 56.8961 308.12 57.766 308.81 58.136L308.82 58.126Z" fill="#007894"/>
<path d="M393.6 115.436L356.67 136.756C354.74 137.876 353.54 139.936 353.54 142.176V155.796C353.54 156.246 353.9 156.606 354.35 156.606H367.97C370.2 156.606 372.27 155.416 373.39 153.476L394.71 116.546C395.13 115.826 394.32 115.016 393.6 115.436Z" fill="#FC735E"/>
<path d="M152.59 1.43604H54.61C24.8 1.43604 0.54 25.7961 0.54 55.7361V153.486C0.54 155.656 2.3 157.416 4.47 157.416H102.45C132.26 157.416 156.52 133.056 156.52 103.116V5.36597C156.52 3.19597 154.76 1.43604 152.59 1.43604ZM127.63 31.4761L80.91 112.376C78.82 115.986 74.97 118.216 70.79 118.216H41.85C40.67 118.216 39.72 117.256 39.72 116.086V86.9661C39.72 82.7961 41.95 78.9359 45.56 76.8459L126.35 30.2061C127.18 29.7261 128.11 30.6561 127.63 31.4861V31.4761Z" fill="#007894"/>
</svg>
